<mxfile host="app.diagrams.net" modified="2022-05-25T19:31:38.056Z" agent="5.0 (Windows NT 10.0; Win64; x64) AppleWebKit/537.36 (KHTML, like Gecko) Chrome/101.0.4951.67 Safari/537.36" etag="UJc5NQeT7j-WqN8DyCIe" version="18.1.2" type="github">
  <diagram id="qgBHBHoI5vRYq5nDz8TL" name="Page-1">
    <mxGraphModel dx="1002" dy="657" grid="1" gridSize="10" guides="1" tooltips="1" connect="1" arrows="1" fold="1" page="1" pageScale="1" pageWidth="850" pageHeight="1100" math="0" shadow="0">
      <root>
        <mxCell id="0" />
        <mxCell id="1" parent="0" />
        <mxCell id="rDfPOSZyXzuXwNUEWjpq-2" value="MiniTwit-Go" style="shape=folder;fontStyle=1;tabWidth=110;tabHeight=30;tabPosition=left;html=1;boundedLbl=1;labelInHeader=1;container=1;collapsible=0;fillColor=none;" vertex="1" parent="1">
          <mxGeometry x="90" y="90" width="430" height="400" as="geometry" />
        </mxCell>
        <mxCell id="rDfPOSZyXzuXwNUEWjpq-3" value="" style="html=1;strokeColor=none;resizeWidth=1;resizeHeight=1;fillColor=none;part=1;connectable=0;allowArrows=0;deletable=0;" vertex="1" parent="rDfPOSZyXzuXwNUEWjpq-2">
          <mxGeometry width="430.00000000000006" height="279.9999999999999" relative="1" as="geometry">
            <mxPoint y="30" as="offset" />
          </mxGeometry>
        </mxCell>
        <mxCell id="rDfPOSZyXzuXwNUEWjpq-20" value="Web" style="shape=folder;fontStyle=1;spacingTop=10;tabWidth=40;tabHeight=14;tabPosition=left;html=1;fillColor=none;" vertex="1" parent="rDfPOSZyXzuXwNUEWjpq-2">
          <mxGeometry x="35" y="40" width="130" height="80" as="geometry" />
        </mxCell>
        <mxCell id="rDfPOSZyXzuXwNUEWjpq-21" value="Models" style="shape=folder;fontStyle=1;spacingTop=10;tabWidth=40;tabHeight=14;tabPosition=left;html=1;fillColor=none;" vertex="1" parent="rDfPOSZyXzuXwNUEWjpq-2">
          <mxGeometry x="35" y="180" width="130" height="80" as="geometry" />
        </mxCell>
        <mxCell id="rDfPOSZyXzuXwNUEWjpq-19" style="edgeStyle=orthogonalEdgeStyle;rounded=0;orthogonalLoop=1;jettySize=auto;html=1;entryX=0.5;entryY=0.175;entryDx=0;entryDy=0;entryPerimeter=0;startArrow=none;startFill=0;dashed=1;endArrow=open;endFill=0;" edge="1" parent="rDfPOSZyXzuXwNUEWjpq-2" source="rDfPOSZyXzuXwNUEWjpq-20" target="rDfPOSZyXzuXwNUEWjpq-21">
          <mxGeometry relative="1" as="geometry" />
        </mxCell>
        <mxCell id="rDfPOSZyXzuXwNUEWjpq-22" value="Database" style="shape=folder;fontStyle=1;spacingTop=10;tabWidth=40;tabHeight=14;tabPosition=left;html=1;fillColor=none;" vertex="1" parent="rDfPOSZyXzuXwNUEWjpq-2">
          <mxGeometry x="265" y="180" width="130" height="80" as="geometry" />
        </mxCell>
        <mxCell id="rDfPOSZyXzuXwNUEWjpq-23" style="edgeStyle=orthogonalEdgeStyle;rounded=0;orthogonalLoop=1;jettySize=auto;html=1;entryX=0.504;entryY=0.163;entryDx=0;entryDy=0;entryPerimeter=0;startArrow=open;startFill=0;dashed=1;endArrow=open;endFill=0;" edge="1" parent="rDfPOSZyXzuXwNUEWjpq-2" source="rDfPOSZyXzuXwNUEWjpq-25" target="rDfPOSZyXzuXwNUEWjpq-22">
          <mxGeometry relative="1" as="geometry" />
        </mxCell>
        <mxCell id="rDfPOSZyXzuXwNUEWjpq-24" style="edgeStyle=orthogonalEdgeStyle;rounded=0;orthogonalLoop=1;jettySize=auto;html=1;entryX=0;entryY=0;entryDx=130;entryDy=47;entryPerimeter=0;endArrow=open;endFill=0;dashed=1;" edge="1" parent="rDfPOSZyXzuXwNUEWjpq-2" source="rDfPOSZyXzuXwNUEWjpq-25" target="rDfPOSZyXzuXwNUEWjpq-21">
          <mxGeometry relative="1" as="geometry" />
        </mxCell>
        <mxCell id="rDfPOSZyXzuXwNUEWjpq-25" value="Controller" style="shape=folder;fontStyle=1;spacingTop=10;tabWidth=40;tabHeight=14;tabPosition=left;html=1;fillColor=none;" vertex="1" parent="rDfPOSZyXzuXwNUEWjpq-2">
          <mxGeometry x="265" y="40" width="130" height="80" as="geometry" />
        </mxCell>
        <mxCell id="rDfPOSZyXzuXwNUEWjpq-26" style="edgeStyle=orthogonalEdgeStyle;rounded=0;orthogonalLoop=1;jettySize=auto;html=1;entryX=0.5;entryY=1;entryDx=0;entryDy=0;entryPerimeter=0;startArrow=none;startFill=0;exitX=0;exitY=0;exitDx=0;exitDy=47;exitPerimeter=0;dashed=1;endArrow=open;endFill=0;" edge="1" parent="rDfPOSZyXzuXwNUEWjpq-2" source="rDfPOSZyXzuXwNUEWjpq-27" target="rDfPOSZyXzuXwNUEWjpq-21">
          <mxGeometry relative="1" as="geometry" />
        </mxCell>
        <mxCell id="rDfPOSZyXzuXwNUEWjpq-27" value="API" style="shape=folder;fontStyle=1;spacingTop=10;tabWidth=40;tabHeight=14;tabPosition=left;html=1;fillColor=none;" vertex="1" parent="rDfPOSZyXzuXwNUEWjpq-2">
          <mxGeometry x="145" y="300" width="130" height="80" as="geometry" />
        </mxCell>
      </root>
    </mxGraphModel>
  </diagram>
</mxfile>
